#!OML:ASF I:\golf\golf\golf 2\Subject 1\2002-09-07\Subject1.ASF
:FULLY-SPECIFIED
:DEGREES
275
root -7.61685 18.0786 -1.77556 -177.828 46.8068 -185.587
lowerback -5.85593 -0.820936 4.47007
upperback 1.63981 -0.499295 15.2851
thorax 5.17804 0.257019 14.4145
lowerneck -2.73788 -15.1632 -4.3757
upperneck 30.1635 -15.2459 -12.4015
head 9.3183 -7.8205 -4.66355
rclavicle -7.95139e-016 -9.54166e-015
rhumerus -1.49249 24.7632 -94.8986
rradius 28.6702
rwrist -55.9554
rhand -18.4214 -17.4082
rfingers 7.12502
rthumb 7.86365 -47.2419
lclavicle -7.95139e-016 -9.54166e-015
lhumerus -0.194073 -48.5021 101.279
lradius 24.1806
lwrist 48.6883
lhand 3.63639 64.4696
lfingers 7.12502
lthumb -150.932 -272.222
rfemur -5.51914 -3.73304 1.12821
rtibia 35.6105
rfoot -3.49998 -27.7653
rtoes 14.5832
lfemur -15.5044 -9.18846 -20.777
ltibia 8.56014
lfoot 10.1975 -33.5474
ltoes 20.6624
276
root -7.5841 18.0788 -1.82306 -178.283 46.4761 -185.479
lowerback -5.99965 -0.14237 4.95336
upperback 1.54775 0.44419 15.357
thorax 4.95318 0.782809 14.2973
lowerneck -2.03157 -15.9654 -4.80021
upperneck 30.3383 -16.3551 -12.0288
head 9.28836 -8.28256 -4.50829
rclavicle -9.14409e-015 2.09917e-013
rhumerus 0.933861 31.1958 -95.2677
rradius 26.8146
rwrist -51.0296
rhand -15.5353 -17.3141
rfingers 7.12502
rthumb 10.6484 -47.0243
lclavicle -9.14409e-015 2.09917e-013
lhumerus -1.21638 -44.6972 101.225
lradius 24.8559
lwrist 54.8778
lhand 2.66004 61.5864
lfingers 7.12502
lthumb -151.864 -450.504
rfemur -4.61274 -3.52071 0.996103
rtibia 35.4049
rfoot -1.8628 -27.5436
rtoes 12.7943
lfemur -14.8656 -9.05969 -21.0216
ltibia 8.954
lfoot 9.90494 -33.9961
ltoes 21.315
277
root -7.54781 18.0742 -1.87153 -179.179 46.1462 -185.539
lowerback -6.07609 0.583951 5.63432
upperback 1.79257 1.3488 15.172
thorax 5.08487 1.26241 13.7535
lowerneck -1.90893 -16.6899 -4.91576
upperneck 30.5882 -17.4434 -11.4735
head 9.38363 -8.71372 -4.39566
rclavicle 3.85642e-014 7.95139e-014
rhumerus 4.50576 37.745 -95.0172
rradius 25.3949
rwrist -44.5549
rhand -12.0234 -17.2101
rfingers 7.12502
rthumb 14.0345 -46.7163
lclavicle 3.85642e-014 7.95139e-014
lhumerus -1.30777 -41.0276 100.195
lradius 25.9858
lwrist 60.6278
lhand 1.24018 58.5315
lfingers 7.12502
lthumb -153.222 -453.344
rfemur -3.30436 -3.07954 0.726433
rtibia 35.1343
rfoot -1.12576 -27.3828
rtoes 12.7833
lfemur -13.903 -8.9248 -21.4443
ltibia 9.45103
lfoot 9.65393 -34.4009
ltoes 22.0105
278
root -7.51914 18.0622 -1.92298 -179.697 45.5298 -185.315
lowerback -5.26136 0.917794 5.54452
upperback 1.289 2.1538 15.7131
thorax 3.88677 1.75826 14.4493
lowerneck -1.32676 -17.3434 -5.70598
upperneck 31.1575 -18.0633 -11.6833
head 9.54151 -9.01521 -4.39533
rclavicle 3.58806e-014 -5.725e-014
rhumerus 7.02152 45.9059 -93.7091
rradius 25.4328
rwrist -39.0517
rhand -8.23726 -17.4187
rfingers 7.12502
rthumb 17.6805 -46.6349
lclavicle 3.58806e-014 -5.725e-014
lhumerus -2.53479 -35.2853 100.999
lradius 27.2139
lwrist 64.3776
lhand -1.88499 56.0933
lfingers 7.12502
lthumb -156.216 -455.359
rfemur -2.02884 -2.77677 0.708076
rtibia 34.825
rfoot -0.783784 -27.3029
rtoes 13.8316
lfemur -13.3052 -9.07295 -21.6418
ltibia 10.0902
lfoot 9.44399 -34.8958
ltoes 22.739
279
root -7.49775 18.0554 -1.97547 -179.415 44.7065 -184.66
lowerback -5.71881 1.51825 6.27285
upperback 1.11946 3.01688 16.0115
thorax 3.79529 2.27104 14.4721
lowerneck -1.09 -18.1507 -6.35989
upperneck 31.4271 -19.1221 -11.3484
head 9.68779 -9.48414 -4.28838
rclavicle -4.50247e-014 9.54166e-015
rhumerus 12.1751 53.3628 -89.741
rradius 26.3931
rwrist -34.0084
rhand -6.51153 -16.5689
rfingers 7.12502
rthumb 19.3406 -45.6271
lclavicle -4.50247e-014 9.54166e-015
lhumerus -2.36257 -30.9286 100.775
lradius 28.9068
lwrist 66.9531
lhand -7.78602 53.8502
lfingers 7.12502
lthumb -161.885 -456.973
rfemur -1.21546 -2.81315 1.08192
rtibia 34.5285
rfoot 0.00687428 -27.2577
rtoes 13.7744
lfemur -13.3584 -9.58909 -21.3642
ltibia 10.8056
lfoot 9.12638 -35.2647
ltoes 23.2559
280
root -7.48121 18.0534 -2.02807 -178.952 43.7771 -183.916
lowerback -6.01431 2.15356 7.19539
upperback 0.853275 3.95009 16.2107
thorax 3.51794 2.82592 14.2377
lowerneck -0.987275 -18.9008 -6.68699
upperneck 31.538 -20.1616 -11.0811
head 9.75714 -9.93119 -4.24297
rclavicle -1.98785e-014 -1.39944e-013
rhumerus 18.6333 59.1375 -84.288
rradius 27.94
rwrist -28.3395
rhand -7.18365 -16.4853
rfingers 7.12502
rthumb 18.6942 -45.607
lclavicle -1.98785e-014 -1.39944e-013
lhumerus -1.88355 -26.2708 100.379
lradius 30.4385
lwrist 66.6076
lhand -12.3994 51.1307
lfingers 7.12502
lthumb -166.328 -459.338
rfemur -0.542005 -3.04013 1.53139
rtibia 34.2783
rfoot 0.881071 -27.2029
rtoes 12.9805
lfemur -13.6018 -10.1129 -20.9806
ltibia 11.5887
lfoot 9.06265 -35.6059
ltoes 24.2238
281
root -7.47069 18.0472 -2.08062 -178.778 42.9056 -183.349
lowerback -5.83686 2.79219 8.15799
upperback 0.533276 4.9434 16.2429
thorax 2.94019 3.39757 13.714
lowerneck -0.794786 -19.5109 -6.46468
upperneck 31.3579 -21.0854 -10.9771
head 9.61256 -10.2997 -4.25894
rclavicle -8.07066e-014 2.03555e-013
rhumerus 23.2254 60.0953 -81.6665
rradius 29.0099
rwrist -23.0783
rhand -4.8478 -15.3145
rfingers 7.12502
rthumb 20.9396 -44.2043
lclavicle -8.07066e-014 2.03555e-013
lhumerus -1.27676 -21.862 99.5936
lradius 32.0151
lwrist 64.8611
lhand -12.4509 48.8022
lfingers 7.12502
lthumb -166.378 -461.664
rfemur 0.244329 -3.44364 1.7396
rtibia 34.0346
rfoot 1.81665 -26.9056
rtoes 12.1173
lfemur -13.7199 -10.637 -20.7589
ltibia 12.4502
lfoot 8.90956 -35.8742
ltoes 25.176
282
root -7.46349 18.0377 -2.13033 -178.631 42.1439 -182.797
lowerback -5.44375 3.45375 9.1618
upperback 0.20178 5.99308 16.1738
thorax 2.2648 3.97862 13.0152
lowerneck -0.598122 -20.1115 -6.11032
upperneck 31.1275 -22.047 -10.7718
head 9.44309 -10.6697 -4.25127
rclavicle -3.73715e-014 2.22639e-014
rhumerus 25.9805 59.0885 -81.3416
rradius 30.0499
rwrist -20.4439
rhand -2.36889 -11.8257
rfingers 7.12502
rthumb 23.3195 -40.4333
lclavicle -3.73715e-014 2.22639e-014
lhumerus -0.529133 -18.8013 98.4854
lradius 33.9186
lwrist 63.9792
lhand -13.0482 45.624
lfingers 7.12502
lthumb -166.953 -464.804
rfemur 0.985148 -3.79241 1.9439
rtibia 33.7445
rfoot 2.78772 -26.6566
rtoes 11.5117
lfemur -13.8392 -11.03 -20.5406
ltibia 13.3385
lfoot 8.60038 -36.192
ltoes 25.821
283
root -7.45408 18.0278 -2.18775 -178.596 41.384 -182.378
lowerback -4.61803 4.04064 9.83027
upperback -0.320928 7.115 16.1674
thorax 1.1169 4.59248 12.504
lowerneck -0.484612 -20.7358 -5.92257
upperneck 31.1025 -22.9877 -10.5738
head 9.3884 -11.0369 -4.25344
rclavicle -2.38542e-014 -1.04958e-013
rhumerus 27.3924 57.7709 -82.1665
rradius 31.1067
rwrist -16.6301
rhand -0.420217 -8.03993
rfingers 7.12502
rthumb 25.1878 -36.3979
lclavicle -2.38542e-014 -1.04958e-013
lhumerus -0.0505102 -17.0579 97.4474
lradius 36.128
lwrist 64.2917
lhand -16.192 41.0976
lfingers 7.12502
lthumb -169.985 -469.161
rfemur 1.80766 -3.84605 2.13346
rtibia 33.4024
rfoot 3.46283 -26.754
rtoes 11.3306
lfemur -13.9142 -11.4265 -20.4578
ltibia 14.2623
lfoot 8.19994 -36.5799
ltoes 26.151
284
root -7.44007 18.0172 -2.25766 -178.713 40.5441 -182.192
lowerback -4.60834 4.69069 10.4584
upperback -0.447344 8.0301 16.0049
thorax 0.939606 5.06273 11.9767
lowerneck -0.585773 -21.3253 -5.65681
upperneck 30.6348 -24.0919 -9.83235
head 9.27455 -11.4601 -4.10675
rclavicle -4.37326e-014 -9.54166e-015
rhumerus 30.5108 56.8363 -81.2365
rradius 32.4008
rwrist -12.0692
rhand -0.234255 -5.07932
rfingers 7.12502
rthumb 25.366 -33.4121
lclavicle -4.37326e-014 -9.54166e-015
lhumerus 1.40709 -16.3112 95.864
lradius 38.3478
lwrist 65.2389
lhand -18.9643 37.3206
lfingers 7.12502
lthumb -172.66 -472.827
rfemur 2.74067 -4.04834 2.07911
rtibia 33.0168
rfoot 4.1287 -26.7788
rtoes 11.2379
lfemur -13.9628 -11.9769 -20.6017
ltibia 15.2543
lfoot 7.61634 -36.925
ltoes 26.2386
285
root -7.42969 18.0092 -2.32107 -178.55 39.5698 -181.747
lowerback -4.32123 5.13049 10.8203
upperback -0.731015 8.85362 16.1209
thorax 0.374963 5.52181 11.8669
lowerneck -0.727957 -21.8066 -5.37669
upperneck 30.0362 -24.9938 -9.33859
head 9.09396 -11.8233 -4.01505
rclavicle -1.12115e-013 -8.90555e-014
rhumerus 32.6624 55.8544 -81.2394
rradius 33.4196
rwrist -6.3634
rhand 0.111667 -1.88014
rfingers 7.12502
rthumb 25.6973 -30.1655
lclavicle -1.12115e-013 -8.90555e-014
lhumerus 2.88089 -15.1316 94.4768
lradius 40.4305
lwrist 65.5964
lhand -20.9141 33.9044
lfingers 7.12502
lthumb -174.543 -476.186
rfemur 3.57084 -4.42779 2.286
rtibia 32.5891
rfoot 4.60826 -26.8796
rtoes 11.9578
lfemur -14.2342 -12.4797 -20.4864
ltibia 16.2899
lfoot 7.26197 -37.4169
ltoes 26.6679
286
root -7.42767 18.0061 -2.37937 -178.046 38.4816 -181.032
lowerback -4.16206 5.59979 11.7413
upperback -1.11665 9.64399 15.9813
thorax -0.0874331 5.93294 11.1553
lowerneck -0.583215 -22.2659 -4.81743
upperneck 29.1712 -25.9609 -8.60835
head 8.76849 -12.1829 -3.82691
rclavicle 4.45278e-014 -5.08889e-014
rhumerus 34.3327 54.3895 -82.293
rradius 34.1991
rwrist -0.577962
rhand 0.175765 1.59963
rfingers 7.12502
rthumb 25.7587 -26.6768
lclavicle 4.45278e-014 -5.08889e-014
lhumerus 4.56966 -13.9756 92.8013
lradius 42.352
lwrist 64.9561
lhand -21.8218 30.5719
lfingers 7.12502
lthumb -175.419 -479.498
rfemur 4.17948 -4.8482 2.82253
rtibia 32.1553
rfoot 4.66503 -27.3392
rtoes 13.8102
lfemur -14.7902 -13.0115 -20.0617
ltibia 17.3197
lfoot 7.32701 -37.9211
ltoes 27.569
